<mxfile host="65bd71144e">
    <diagram id="qZzY9AqTdy8Hu-7LQzvj" name="Page-1">
        <mxGraphModel dx="773" dy="1744" grid="1" gridSize="10" guides="1" tooltips="1" connect="1" arrows="1" fold="1" page="1" pageScale="1" pageWidth="827" pageHeight="1169" math="0" shadow="0">
            <root>
                <mxCell id="0"/>
                <mxCell id="1" parent="0"/>
                <mxCell id="3" value="User" style="swimlane;" parent="1" vertex="1">
                    <mxGeometry x="20" y="10" width="140" height="360" as="geometry"/>
                </mxCell>
                <mxCell id="4" value="User-id" style="text;html=1;align=center;verticalAlign=middle;resizable=0;points=[];autosize=1;strokeColor=none;" parent="3" vertex="1">
                    <mxGeometry y="30" width="50" height="20" as="geometry"/>
                </mxCell>
                <mxCell id="5" value="FirstName&lt;br&gt;" style="text;html=1;align=center;verticalAlign=middle;resizable=0;points=[];autosize=1;strokeColor=none;" parent="3" vertex="1">
                    <mxGeometry y="50" width="70" height="20" as="geometry"/>
                </mxCell>
                <mxCell id="6" value="lastName&lt;br&gt;" style="text;html=1;align=center;verticalAlign=middle;resizable=0;points=[];autosize=1;strokeColor=none;" parent="3" vertex="1">
                    <mxGeometry x="-5" y="70" width="70" height="20" as="geometry"/>
                </mxCell>
                <mxCell id="7" value="age&lt;br&gt;" style="text;html=1;align=center;verticalAlign=middle;resizable=0;points=[];autosize=1;strokeColor=none;" parent="3" vertex="1">
                    <mxGeometry x="-5" y="90" width="40" height="20" as="geometry"/>
                </mxCell>
                <mxCell id="8" value="familySituation" style="text;html=1;align=center;verticalAlign=middle;resizable=0;points=[];autosize=1;strokeColor=none;" parent="3" vertex="1">
                    <mxGeometry y="110" width="90" height="20" as="geometry"/>
                </mxCell>
                <mxCell id="9" value="email" style="text;html=1;align=center;verticalAlign=middle;resizable=0;points=[];autosize=1;strokeColor=none;" parent="3" vertex="1">
                    <mxGeometry x="5" y="140" width="40" height="20" as="geometry"/>
                </mxCell>
                <mxCell id="12" value="tel&lt;br&gt;&lt;br&gt;" style="text;html=1;align=center;verticalAlign=middle;resizable=0;points=[];autosize=1;strokeColor=none;" parent="3" vertex="1">
                    <mxGeometry x="5" y="160" width="30" height="30" as="geometry"/>
                </mxCell>
                <mxCell id="14" value="title&lt;br&gt;" style="text;html=1;align=center;verticalAlign=middle;resizable=0;points=[];autosize=1;strokeColor=none;" vertex="1" parent="3">
                    <mxGeometry x="10" y="190" width="30" height="20" as="geometry"/>
                </mxCell>
                <mxCell id="18" value="joinDate&lt;br&gt;" style="text;html=1;align=center;verticalAlign=middle;resizable=0;points=[];autosize=1;strokeColor=none;" vertex="1" parent="3">
                    <mxGeometry y="260" width="60" height="20" as="geometry"/>
                </mxCell>
                <mxCell id="20" value="availibility&lt;br&gt;" style="text;html=1;align=center;verticalAlign=middle;resizable=0;points=[];autosize=1;strokeColor=none;" vertex="1" parent="3">
                    <mxGeometry x="5" y="320" width="70" height="20" as="geometry"/>
                </mxCell>
                <mxCell id="19" value="role&lt;br&gt;" style="text;html=1;align=center;verticalAlign=middle;resizable=0;points=[];autosize=1;strokeColor=none;" vertex="1" parent="3">
                    <mxGeometry x="5" y="290" width="40" height="20" as="geometry"/>
                </mxCell>
                <mxCell id="16" value="Departement&lt;br&gt;" style="text;html=1;align=center;verticalAlign=middle;resizable=0;points=[];autosize=1;strokeColor=none;" vertex="1" parent="3">
                    <mxGeometry x="-5" y="220" width="90" height="20" as="geometry"/>
                </mxCell>
                <mxCell id="17" value="adress" style="text;html=1;align=center;verticalAlign=middle;resizable=0;points=[];autosize=1;strokeColor=none;" vertex="1" parent="3">
                    <mxGeometry y="240" width="50" height="20" as="geometry"/>
                </mxCell>
                <mxCell id="21" value="Project" style="swimlane;" vertex="1" parent="1">
                    <mxGeometry x="580" y="180" width="190" height="220" as="geometry"/>
                </mxCell>
                <mxCell id="22" value="Project-id" style="text;html=1;align=center;verticalAlign=middle;resizable=0;points=[];autosize=1;strokeColor=none;" vertex="1" parent="21">
                    <mxGeometry x="-5" y="30" width="70" height="20" as="geometry"/>
                </mxCell>
                <mxCell id="29" value="deadline" style="text;html=1;align=center;verticalAlign=middle;resizable=0;points=[];autosize=1;strokeColor=none;" vertex="1" parent="21">
                    <mxGeometry y="160" width="60" height="20" as="geometry"/>
                </mxCell>
                <mxCell id="30" value="state" style="text;html=1;align=center;verticalAlign=middle;resizable=0;points=[];autosize=1;strokeColor=none;" vertex="1" parent="21">
                    <mxGeometry x="5" y="180" width="40" height="20" as="geometry"/>
                </mxCell>
                <mxCell id="28" value="startDate" style="text;html=1;align=center;verticalAlign=middle;resizable=0;points=[];autosize=1;strokeColor=none;" vertex="1" parent="21">
                    <mxGeometry x="5" y="130" width="60" height="20" as="geometry"/>
                </mxCell>
                <mxCell id="25" value="name" style="text;html=1;align=center;verticalAlign=middle;resizable=0;points=[];autosize=1;strokeColor=none;" vertex="1" parent="21">
                    <mxGeometry x="-5" y="50" width="50" height="20" as="geometry"/>
                </mxCell>
                <mxCell id="135" value="&lt;font style=&quot;font-size: 13px&quot;&gt;description&lt;/font&gt;" style="text;html=1;align=center;verticalAlign=middle;resizable=0;points=[];autosize=1;strokeColor=none;fontSize=14;" vertex="1" parent="21">
                    <mxGeometry y="80" width="80" height="20" as="geometry"/>
                </mxCell>
                <mxCell id="31" value="Task" style="swimlane;" vertex="1" parent="1">
                    <mxGeometry x="300" y="510" width="200" height="200" as="geometry"/>
                </mxCell>
                <mxCell id="32" value="task-id" style="text;html=1;align=center;verticalAlign=middle;resizable=0;points=[];autosize=1;strokeColor=none;" vertex="1" parent="31">
                    <mxGeometry y="30" width="50" height="20" as="geometry"/>
                </mxCell>
                <mxCell id="33" value="name" style="text;html=1;align=center;verticalAlign=middle;resizable=0;points=[];autosize=1;strokeColor=none;" vertex="1" parent="31">
                    <mxGeometry x="-5" y="50" width="50" height="20" as="geometry"/>
                </mxCell>
                <mxCell id="34" value="starDate&lt;br&gt;" style="text;html=1;align=center;verticalAlign=middle;resizable=0;points=[];autosize=1;strokeColor=none;" vertex="1" parent="31">
                    <mxGeometry x="-5" y="80" width="60" height="20" as="geometry"/>
                </mxCell>
                <mxCell id="35" value="deadline" style="text;html=1;align=center;verticalAlign=middle;resizable=0;points=[];autosize=1;strokeColor=none;" vertex="1" parent="31">
                    <mxGeometry x="-5" y="110" width="60" height="20" as="geometry"/>
                </mxCell>
                <mxCell id="36" value="state" style="text;html=1;align=center;verticalAlign=middle;resizable=0;points=[];autosize=1;strokeColor=none;" vertex="1" parent="31">
                    <mxGeometry y="140" width="40" height="20" as="geometry"/>
                </mxCell>
                <mxCell id="44" value="salle" style="swimlane;" vertex="1" parent="1">
                    <mxGeometry x="580" y="-80" width="200" height="150" as="geometry"/>
                </mxCell>
                <mxCell id="45" value="salle-id" style="text;html=1;align=center;verticalAlign=middle;resizable=0;points=[];autosize=1;strokeColor=none;" vertex="1" parent="44">
                    <mxGeometry x="-1" y="30" width="50" height="20" as="geometry"/>
                </mxCell>
                <mxCell id="46" value="numero" style="text;html=1;align=center;verticalAlign=middle;resizable=0;points=[];autosize=1;strokeColor=none;" vertex="1" parent="44">
                    <mxGeometry x="-5" y="60" width="60" height="20" as="geometry"/>
                </mxCell>
                <mxCell id="47" value="capacite" style="text;html=1;align=center;verticalAlign=middle;resizable=0;points=[];autosize=1;strokeColor=none;" vertex="1" parent="44">
                    <mxGeometry x="-6" y="90" width="60" height="20" as="geometry"/>
                </mxCell>
                <mxCell id="50" style="edgeStyle=orthogonalEdgeStyle;rounded=0;orthogonalLoop=1;jettySize=auto;html=1;" edge="1" parent="1" source="48">
                    <mxGeometry relative="1" as="geometry">
                        <mxPoint x="140" y="370" as="targetPoint"/>
                    </mxGeometry>
                </mxCell>
                <mxCell id="48" value="manager" style="swimlane;" vertex="1" parent="1">
                    <mxGeometry x="40" y="450" width="200" height="100" as="geometry"/>
                </mxCell>
                <mxCell id="49" value="admin" style="swimlane;" vertex="1" parent="1">
                    <mxGeometry x="20" y="610" width="200" height="140" as="geometry"/>
                </mxCell>
                <mxCell id="66" value="admin-id" style="text;html=1;align=center;verticalAlign=middle;resizable=0;points=[];autosize=1;strokeColor=none;" vertex="1" parent="1">
                    <mxGeometry x="20" y="640" width="60" height="20" as="geometry"/>
                </mxCell>
                <mxCell id="67" value="name" style="text;html=1;align=center;verticalAlign=middle;resizable=0;points=[];autosize=1;strokeColor=none;" vertex="1" parent="1">
                    <mxGeometry x="15" y="660" width="50" height="20" as="geometry"/>
                </mxCell>
                <mxCell id="76" value="" style="endArrow=none;html=1;exitX=0.038;exitY=-0.024;exitDx=0;exitDy=0;exitPerimeter=0;" edge="1" parent="1" source="49">
                    <mxGeometry width="50" height="50" relative="1" as="geometry">
                        <mxPoint x="210" y="510" as="sourcePoint"/>
                        <mxPoint x="28" y="370" as="targetPoint"/>
                    </mxGeometry>
                </mxCell>
                <mxCell id="91" value="1..1" style="text;html=1;align=center;verticalAlign=middle;resizable=0;points=[];autosize=1;strokeColor=none;fontSize=14;" vertex="1" parent="1">
                    <mxGeometry x="25" y="585" width="40" height="20" as="geometry"/>
                </mxCell>
                <mxCell id="92" value="0..n" style="text;html=1;align=center;verticalAlign=middle;resizable=0;points=[];autosize=1;strokeColor=none;fontSize=14;" vertex="1" parent="1">
                    <mxGeometry x="20" y="370" width="40" height="20" as="geometry"/>
                </mxCell>
                <mxCell id="99" value="add" style="text;html=1;align=center;verticalAlign=middle;resizable=0;points=[];autosize=1;strokeColor=none;fontSize=14;" vertex="1" parent="1">
                    <mxGeometry y="500" width="40" height="20" as="geometry"/>
                </mxCell>
                <mxCell id="103" value="" style="endArrow=none;html=1;fontSize=14;" edge="1" parent="1">
                    <mxGeometry width="50" height="50" relative="1" as="geometry">
                        <mxPoint x="400" y="507" as="sourcePoint"/>
                        <mxPoint x="400" y="380" as="targetPoint"/>
                    </mxGeometry>
                </mxCell>
                <mxCell id="107" value="project-creation" style="swimlane;fontSize=14;" vertex="1" parent="1">
                    <mxGeometry x="290" y="180" width="200" height="200" as="geometry"/>
                </mxCell>
                <mxCell id="109" value="date-project" style="text;html=1;align=center;verticalAlign=middle;resizable=0;points=[];autosize=1;strokeColor=none;fontSize=14;" vertex="1" parent="107">
                    <mxGeometry x="5" y="40" width="90" height="20" as="geometry"/>
                </mxCell>
                <mxCell id="111" value="" style="endArrow=none;html=1;fontSize=14;entryX=0;entryY=0.5;entryDx=0;entryDy=0;" edge="1" parent="1" target="107">
                    <mxGeometry width="50" height="50" relative="1" as="geometry">
                        <mxPoint x="163" y="279.5" as="sourcePoint"/>
                        <mxPoint x="240" y="279.5" as="targetPoint"/>
                    </mxGeometry>
                </mxCell>
                <mxCell id="112" value="" style="endArrow=none;html=1;fontSize=14;exitX=1;exitY=0.5;exitDx=0;exitDy=0;" edge="1" parent="1" source="107">
                    <mxGeometry width="50" height="50" relative="1" as="geometry">
                        <mxPoint x="520" y="340" as="sourcePoint"/>
                        <mxPoint x="580" y="280" as="targetPoint"/>
                        <Array as="points"/>
                    </mxGeometry>
                </mxCell>
                <mxCell id="118" value="reservation" style="swimlane;fontSize=14;" vertex="1" parent="1">
                    <mxGeometry x="260" y="-80" width="200" height="200" as="geometry"/>
                </mxCell>
                <mxCell id="119" value="id-reservation" style="text;html=1;align=center;verticalAlign=middle;resizable=0;points=[];autosize=1;strokeColor=none;fontSize=14;" vertex="1" parent="118">
                    <mxGeometry y="40" width="100" height="20" as="geometry"/>
                </mxCell>
                <mxCell id="120" value="date-reservation" style="text;html=1;align=center;verticalAlign=middle;resizable=0;points=[];autosize=1;strokeColor=none;fontSize=14;" vertex="1" parent="118">
                    <mxGeometry y="70" width="120" height="20" as="geometry"/>
                </mxCell>
                <mxCell id="121" value="" style="endArrow=none;html=1;fontSize=14;" edge="1" parent="1">
                    <mxGeometry width="50" height="50" relative="1" as="geometry">
                        <mxPoint x="160" y="80" as="sourcePoint"/>
                        <mxPoint x="260" y="80" as="targetPoint"/>
                    </mxGeometry>
                </mxCell>
                <mxCell id="124" value="1..n" style="text;html=1;align=center;verticalAlign=middle;resizable=0;points=[];autosize=1;strokeColor=none;fontSize=14;" vertex="1" parent="1">
                    <mxGeometry x="170" y="50" width="40" height="20" as="geometry"/>
                </mxCell>
                <mxCell id="126" value="0..n" style="text;html=1;align=center;verticalAlign=middle;resizable=0;points=[];autosize=1;strokeColor=none;fontSize=14;" vertex="1" parent="1">
                    <mxGeometry x="500" y="-30" width="40" height="20" as="geometry"/>
                </mxCell>
                <mxCell id="128" value="1..n" style="text;html=1;align=center;verticalAlign=middle;resizable=0;points=[];autosize=1;strokeColor=none;fontSize=14;" vertex="1" parent="1">
                    <mxGeometry x="170" y="250" width="40" height="20" as="geometry"/>
                </mxCell>
                <mxCell id="129" value="0..n" style="text;html=1;align=center;verticalAlign=middle;resizable=0;points=[];autosize=1;strokeColor=none;fontSize=14;" vertex="1" parent="1">
                    <mxGeometry x="520" y="250" width="40" height="20" as="geometry"/>
                </mxCell>
                <mxCell id="131" value="0..n" style="text;html=1;align=center;verticalAlign=middle;resizable=0;points=[];autosize=1;strokeColor=none;fontSize=14;" vertex="1" parent="1">
                    <mxGeometry x="400" y="480" width="40" height="20" as="geometry"/>
                </mxCell>
                <mxCell id="134" value="" style="endArrow=none;html=1;fontSize=14;entryX=0.05;entryY=1.12;entryDx=0;entryDy=0;entryPerimeter=0;" edge="1" parent="1" target="46">
                    <mxGeometry width="50" height="50" relative="1" as="geometry">
                        <mxPoint x="460" y="2" as="sourcePoint"/>
                        <mxPoint x="430" y="-120" as="targetPoint"/>
                        <Array as="points">
                            <mxPoint x="520" y="2"/>
                        </Array>
                    </mxGeometry>
                </mxCell>
            </root>
        </mxGraphModel>
    </diagram>
</mxfile>